<svg width="55" height="55" viewBox="0 0 55 55" fill="none" xmlns="http://www.w3.org/2000/svg">
<g clip-path="url(#clip0_76_16)">
<path d="M40.2485 12.7876C39.3759 9.29834 37.4306 6.1708 34.6867 3.84547C33.4547 2.65806 32.0898 1.61686 30.619 0.742556C29.4141 0.0562833 27.9993 -0.16389 26.6429 0.123806C26.3003 0.194533 25.9838 0.358381 25.7283 0.597329C25.4728 0.836277 25.2881 1.14107 25.1946 1.47818C25.0839 2.67183 25.169 3.87555 25.4467 5.04172C25.6781 7.34026 25.8844 9.63881 25.9302 11.9373C25.9669 13.4712 25.921 15.0028 25.7927 16.5321C25.449 21.2438 25.4031 25.9555 25.0823 30.6442C25.0823 31.8153 24.9196 32.9428 24.805 34.1367L24.3238 41.3555C23.7768 39.9455 22.8346 38.7234 21.6104 37.8355C19.3579 36.5103 16.6751 36.1227 14.1396 36.7561C11.5807 37.1961 9.24718 38.4922 7.52125 40.4319C6.98971 41.1245 6.57836 41.9015 6.30437 42.7305C5.95701 43.8965 5.75609 45.1013 5.70625 46.3169C5.66042 46.8685 5.66042 47.42 5.70625 47.9715C5.75208 48.5444 5.86667 49.1036 6.05 49.649C6.35379 50.8167 6.9436 51.8902 7.7662 52.7729C8.5888 53.6555 9.61827 54.3193 10.7617 54.7044C12.3876 55.0667 14.0705 55.0926 15.7068 54.7805C17.3431 54.4683 18.8983 53.8248 20.2767 52.8894C21.6039 52.1284 22.7995 51.158 23.8173 50.0157C25.8844 47.7171 25.4719 45.7417 26.1158 38.1105C26.1158 36.8019 26.4137 35.514 26.62 34.2261C26.8644 32.4661 27.0707 30.6969 27.2387 28.9186C27.6306 24.828 27.8392 20.7144 28.2746 16.6215C28.4274 15.0173 28.4885 13.4086 28.4579 11.7953C28.4579 9.49672 28.1829 7.20047 27.9538 4.71631C27.9538 4.30381 27.7475 3.70797 27.6329 3.08464C27.61 2.87839 27.61 2.67214 27.6329 2.46589C28.2402 2.44526 28.8429 2.58735 29.3792 2.87839C30.6986 3.6191 31.9249 4.51459 33.0321 5.54589C35.0417 7.18539 36.6199 9.2915 37.6292 11.6807C38.1435 12.826 38.3725 14.0789 38.2966 15.3322C38.2208 16.5854 37.8424 17.8015 37.1937 18.8765C36.819 19.4599 36.3792 19.9988 35.8829 20.483C35.3772 21.0024 34.8333 21.4776 34.2513 21.9084C34.1301 22.067 34.0766 22.267 34.1024 22.4649C34.1281 22.6628 34.2311 22.8425 34.3888 22.9648C34.5126 23.1328 34.6969 23.2458 34.9027 23.28C35.1085 23.3143 35.3195 23.267 35.491 23.1482C36.1373 22.6837 36.7583 22.1864 37.3542 21.6563C37.9607 21.117 38.5046 20.5189 38.9858 19.8619C39.6623 18.8283 40.1228 17.6686 40.3398 16.4525C40.5568 15.2364 40.5257 13.9913 40.2485 12.7876ZM19.3806 51.3059C17.4232 52.559 15.0951 53.1026 12.7852 52.8459C11.7633 52.7271 10.8055 52.2869 10.0497 51.5889C9.29399 50.8908 8.77936 49.9708 8.58 48.9615C8.46982 48.5785 8.39314 48.1867 8.35083 47.7905C8.31336 47.3773 8.31336 46.9616 8.35083 46.5484C8.38444 45.7096 8.49903 44.8823 8.69458 44.0665C8.855 43.3355 9.16896 42.6457 9.61125 42.043C10.9169 40.5109 12.6971 39.4591 14.669 39.0546C16.6272 38.4207 18.7558 38.5778 20.5998 39.4923C21.599 40.0996 22.3965 40.9865 22.896 42.043C24.3215 45.3292 23.9548 48.2488 19.3806 51.3059Z" fill="#5DD016"/>
<path d="M16.4382 7.27141C15.4109 5.84222 13.9534 4.77905 12.2788 4.23724C11.5451 3.91545 10.7723 3.69125 9.98028 3.57037C9.31284 3.47697 8.63434 3.63191 8.07361 4.00578C7.6805 4.33182 7.41911 4.78947 7.33798 5.2937C7.33798 5.77495 7.56715 5.88953 7.75048 6.28141C8.27986 7.29432 8.78632 7.77557 9.22173 8.81141C9.65715 9.84266 9.77403 10.1887 10.0032 10.9014C10.6242 12.7645 11.5432 15.2464 12.3017 17.451C12.4851 17.9804 12.6684 18.5327 12.8288 19.0827L14.1419 22.7149C13.4639 22.2053 12.6773 21.8595 11.8434 21.7043C11.1307 21.521 9.93444 22.2314 8.80923 22.967C7.8009 23.6454 7.07444 24.6674 6.76278 25.8408C6.64346 26.259 6.60458 26.696 6.64819 27.1287C6.68715 27.7245 6.82007 28.3158 7.03778 28.875C7.11417 29.1347 7.22187 29.3791 7.3609 29.6083C7.48007 29.8619 7.63285 30.0926 7.81923 30.3004C8.16988 30.775 8.63255 31.1554 9.16598 31.4077C9.6994 31.66 10.287 31.7764 10.8763 31.7464C11.6613 31.5943 12.4086 31.2886 13.0751 30.847C13.7417 30.4054 14.3145 29.8364 14.7607 29.1729C15.2252 28.5853 15.5906 27.9258 15.8424 27.2204C16.3465 25.7491 15.8424 24.9218 14.7378 21.3812C14.5544 20.7624 14.4169 20.1414 14.2565 19.5204C14.0961 18.9016 13.8211 17.8199 13.5667 16.9927C12.9938 15.0608 12.3476 13.1541 11.7976 11.2016C11.5684 10.4224 11.3003 9.65627 10.9932 8.90307C10.5218 7.841 10.008 6.79822 9.45319 5.77724C9.45319 5.59391 9.17819 5.34182 9.01778 5.08745C9.01131 4.98825 9.01131 4.88873 9.01778 4.78953C9.30384 4.71959 9.60254 4.71959 9.88861 4.78953C10.6219 4.8812 11.3347 5.05689 12.0267 5.31662C13.257 5.68199 14.378 6.3456 15.2901 7.24849C15.7338 7.67585 16.0678 8.20403 16.2637 8.78813C16.4596 9.37223 16.5116 9.99499 16.4153 10.6035C16.3088 10.9075 16.1705 11.1993 16.0028 11.4743C15.8683 11.8043 15.7079 12.119 15.5215 12.4185C15.4895 12.5021 15.4872 12.5942 15.5151 12.6793C15.543 12.7644 15.5993 12.8373 15.6746 12.8857C15.7499 12.9341 15.8396 12.9551 15.9286 12.9451C16.0176 12.9352 16.1004 12.8949 16.1632 12.831C16.3771 12.5086 16.5681 12.1725 16.7361 11.8227C16.9026 11.4499 17.0333 11.0664 17.128 10.6722C17.3533 9.49234 17.1042 8.27113 16.4382 7.27141ZM13.4751 28.2997C12.859 29.1505 11.978 29.7728 10.9703 30.0689C10.5374 30.1497 10.0904 30.104 9.68272 29.9374C9.27508 29.7708 8.92408 29.4902 8.67173 29.1293C8.55967 28.9964 8.46708 28.8483 8.39673 28.6893C8.30861 28.5187 8.23131 28.3426 8.16528 28.1622C8.05172 27.8076 7.95989 27.4464 7.89028 27.0806C7.83298 26.7469 7.83298 26.4059 7.89028 26.0722C8.18819 25.2197 8.75194 24.4864 9.49903 23.9799C10.2148 23.4116 11.1141 23.1254 12.0267 23.1756C12.5355 23.2718 13.0053 23.5102 13.3834 23.8631C14.5315 24.9677 14.8753 26.2785 13.4751 28.2997ZM49.2136 36.5291C48.8018 34.836 47.8784 33.3109 46.569 32.1612C45.9772 31.5705 45.3224 31.0465 44.6165 30.5983C44.0253 30.2614 43.3332 30.1399 42.6617 30.2545C42.1749 30.4114 41.7598 30.7363 41.4907 31.1712C41.4168 31.3379 41.3786 31.5182 41.3786 31.7006C41.3786 31.8829 41.4168 32.0632 41.4907 32.2299C42.1094 33.7654 42.3547 35.4291 42.2011 37.0791C41.7199 40.8489 41.1469 44.5729 41.1469 44.5729C40.5304 44.0648 39.8502 43.6396 39.1234 43.3079C38.1875 43.0037 37.1872 42.9562 36.2267 43.1704C35.0321 43.3944 33.9609 44.0482 33.2155 45.0083C32.9558 45.3551 32.7495 45.7302 32.5967 46.1335C32.4195 46.711 32.3126 47.3015 32.2759 47.9049C32.2515 48.1723 32.2515 48.4397 32.2759 48.707C32.2988 48.9866 32.3446 49.2631 32.4134 49.5366C32.5605 50.1135 32.8468 50.6455 33.2471 51.0861C33.6474 51.5268 34.1495 51.8626 34.7096 52.0643C35.4906 52.2465 36.3003 52.2692 37.0902 52.1309C37.8801 51.9927 38.634 51.6965 39.3067 51.2599C39.9599 50.8878 40.5558 50.4232 41.0759 49.8804C42.014 48.0508 42.5692 46.0491 42.7076 43.9977C43.4201 39.8533 43.5589 35.6307 43.1201 31.4485C43.418 31.4577 43.7113 31.5356 43.9726 31.6777C44.6173 32.052 45.207 32.4965 45.7417 33.0114C46.7543 33.8195 47.5451 34.8714 48.0403 36.0685C48.2835 36.6327 48.3856 37.2477 48.3376 37.8602C48.2897 38.4727 48.0933 39.0644 47.7653 39.5839C47.5762 39.8645 47.3605 40.1261 47.1213 40.3654C46.8632 40.6087 46.5866 40.8316 46.294 41.0322C46.228 41.1041 46.1914 41.1982 46.1914 41.2958C46.1914 41.3934 46.228 41.4874 46.294 41.5593C46.3501 41.6427 46.4363 41.7012 46.5345 41.7226C46.6328 41.7439 46.7354 41.7265 46.8211 41.6739C47.148 41.4554 47.4551 41.211 47.7424 40.9406C48.051 40.6809 48.3183 40.3822 48.5444 40.0445C48.8947 39.5371 49.1349 38.962 49.2497 38.3562C49.3646 37.7504 49.3515 37.1273 49.2113 36.5268M38.523 49.8781C37.636 50.4224 36.5902 50.6487 35.5576 50.5197C35.1035 50.4429 34.683 50.2311 34.3511 49.9118C34.0192 49.5926 33.7911 49.1807 33.6967 48.7299C33.6763 48.5541 33.6763 48.3764 33.6967 48.2006C33.6747 48.0179 33.6747 47.8332 33.6967 47.6506C33.712 47.2671 33.7731 46.8913 33.8801 46.5231C33.9626 46.1992 34.1001 45.9005 34.2926 45.627C34.8946 44.9491 35.7032 44.4884 36.5934 44.3162C37.4734 44.0664 38.4176 44.1558 39.2357 44.5683C39.6711 44.8524 40.0057 45.2627 40.2005 45.7416C40.7986 47.2358 40.613 48.5443 38.523 49.8781Z" fill="#5DD016"/>
</g>
<defs>
<clipPath id="clip0_76_16">
<rect width="55" height="55" fill="white"/>
</clipPath>
</defs>
</svg>
